<svg width="57" height="21" viewBox="0 0 57 21" fill="none" xmlns="http://www.w3.org/2000/svg">
<path d="M9.08129 10.2202L7.9351 12.7826H12.0202L11.9027 10.2496C11.8439 9.30715 11.7949 8.37447 11.7557 7.45161C11.7165 6.50912 11.6773 5.53717 11.6382 4.53576H11.5206C11.1091 5.47826 10.7075 6.42076 10.3156 7.36325C9.92378 8.30575 9.51233 9.25806 9.08129 10.2202ZM0 20.6466L9.84541 1.4432H14.6359L16.6343 20.6466H12.4023L12.1672 15.8163H6.5832L4.43778 20.6466H0Z" fill="#1B1B1C"/>
<path d="M20.0425 20.9243C19.4113 20.9243 18.911 20.716 18.5415 20.2994C18.1721 19.8829 17.9873 19.3583 17.9873 18.7258C17.9873 18.3247 18.0566 17.9467 18.1952 17.5919C18.3337 17.2216 18.5262 16.9053 18.7725 16.6431C19.0342 16.3654 19.3421 16.1494 19.6961 15.9951C20.0502 15.8408 20.4351 15.7637 20.8507 15.7637C21.4819 15.7637 21.9822 15.9719 22.3517 16.3885C22.7365 16.805 22.9289 17.3373 22.9289 17.9853C22.9289 18.3864 22.852 18.7644 22.698 19.1192C22.5595 19.4741 22.3594 19.7903 22.0976 20.068C21.8513 20.3303 21.5511 20.5386 21.1971 20.6928C20.843 20.8471 20.4581 20.9243 20.0425 20.9243Z" fill="#1B1B1C"/>
<path d="M34.176 21C33.0592 21 32.0502 20.8233 31.1489 20.4698C30.2672 20.0968 29.5031 19.5666 28.8566 18.8794C28.2296 18.1725 27.7398 17.3282 27.3871 16.3464C27.054 15.345 26.8875 14.216 26.8875 12.9593C26.8875 11.31 27.152 9.76858 27.681 8.3352C28.21 6.88219 28.9251 5.62553 29.8264 4.56522C30.7473 3.48527 31.8249 2.64095 33.0592 2.03226C34.3132 1.40393 35.6553 1.08976 37.0856 1.08976C38.2023 1.08976 39.1918 1.36466 40.0539 1.91445C40.9355 2.4446 41.6409 3.19074 42.1699 4.15288L39.4367 6.27349C39.084 5.70407 38.702 5.28191 38.2905 5.00701C37.8791 4.73212 37.4088 4.59467 36.8798 4.59467C36.0569 4.59467 35.2928 4.82048 34.5875 5.27209C33.8821 5.70407 33.2649 6.29313 32.7359 7.03927C32.2069 7.78541 31.7857 8.64937 31.4722 9.63114C31.1783 10.6129 31.0314 11.6339 31.0314 12.6943C31.0314 14.1865 31.3351 15.3647 31.9424 16.2286C32.5694 17.0926 33.598 17.5245 35.0283 17.5245C35.5965 17.5245 36.1549 17.3871 36.7035 17.1122C37.2521 16.8373 37.7713 16.4839 38.2611 16.0519L39.9657 18.6438C39.6718 18.9187 39.3289 19.1935 38.9371 19.4684C38.5452 19.7433 38.1044 19.9986 37.6146 20.2342C37.1247 20.4502 36.5859 20.6269 35.9982 20.7644C35.43 20.9215 34.8226 21 34.176 21Z" fill="#1B1B1C"/>
<path d="M41.4825 20.6466L45.597 0H49.6233L48.3889 6.06732L47.713 8.45302H47.8305C48.5751 7.6676 49.4078 7.00982 50.3286 6.47966C51.2691 5.94951 52.2389 5.68443 53.2382 5.68443C54.4725 5.68443 55.4032 6.00842 56.0302 6.65638C56.6767 7.28471 57 8.20757 57 9.42497C57 10.1122 56.9216 10.8485 56.7649 11.6339L54.9721 20.6466H50.9458L52.6504 12.1052C52.7092 11.8107 52.7581 11.5456 52.7973 11.31C52.8365 11.0547 52.8561 10.8191 52.8561 10.6031C52.8561 9.62132 52.3565 9.13043 51.3573 9.13043C50.7303 9.13043 50.0543 9.34642 49.3294 9.7784C48.6241 10.2104 47.9285 10.8583 47.2428 11.7223L45.5088 20.6466H41.4825Z" fill="#1B1B1C"/>
</svg>
